<!-- art: @gatomocho --><svg xmlns="http://www.w3.org/2000/svg" viewBox="0 0 200 200"><ellipse cx="80.65" cy="108.32" rx="9.15" ry="12.96" style="fill:#7daf47;opacity:.75;stroke-width:0"/><ellipse cx="121.82" cy="108.32" rx="9.15" ry="12.96" style="fill:#7daf47;opacity:.75;stroke-width:0"/><path d="M101.54 25.05c-45.9 0-83.1 37.23-83.1 83.17s37.21 83.17 83.1 83.17 83.1-37.23 83.1-83.17-37.21-83.17-83.1-83.17Zm32.9 125.97-9.7-10.6-23.22.74-20.87-1.81-10.27 11.33-30.89-17.26 5.05-36.49L59.33 65.3l24.27-8.94 5.31 7.57 12.66-2 12.99 2 5.82-7.22 24.14 8.47 13.9 31.28 5.18 37.96-29.15 16.61Z" style="fill:#7daf47;opacity:.75;stroke-width:0"/><path d="M78.2 21.47c44.51-11.19 89.67 15.82 100.86 60.33M17.87 122.33C6.68 77.82 33.69 32.66 78.2 21.47" style="fill:none;stroke:#000;stroke-linecap:round;stroke-linejoin:round;stroke-width:4px"/><path d="M179.06 81.79c11.19 44.51-15.82 89.67-60.33 100.86M67.29 179.1c15.78 6.4 33.66 8.02 51.44 3.55M45.38 165.44c3.52 3.15 7.45 5.79 11.68 7.88M17.87 122.33c3.36 13.37 9.79 25.15 18.33 34.8M152.1 80.04c-.26-.62-.4-1.2-.75-2.02M85.82 58.11l-3.77-5.72c-7.27 2.25-14.53 4.49-21.8 6.74-.89.28-1.81.57-2.52 1.17-.56.47-.95 1.11-1.33 1.74-12.32 20.51-18.79 44.49-18.45 68.41 2.42 2.07 5.24 3.61 8.04 5.13 7.38 4.01 14.76 8.03 22.14 12.04l8.67-11.16M114.18 58.11l3.77-5.72c7.27 2.25 14.53 4.49 21.8 6.74.89.28 1.81.57 2.52 1.17.56.47.96 1.1 1.33 1.74 2.08 3.59 5.48 10.4 5.48 10.4" style="fill:none;stroke:#000;stroke-linecap:round;stroke-linejoin:round;stroke-width:4px"/><path d="M154.93 86.38c4.87 14.13 7.32 29.11 7.11 44.06-2.42 2.07-5.24 3.61-8.04 5.13-7.38 4.01-14.76 8.03-22.14 12.04l-8.67-11.16M84.52 59.96a62.61 62.61 0 0 1 30.92-.11" style="fill:none;stroke:#000;stroke-linecap:round;stroke-linejoin:round;stroke-width:4px"/><path d="M73.73 134.51c17.19 3.07 35.45 3.58 52.56 1.47" style="fill:none;stroke:#000;stroke-linecap:round;stroke-linejoin:round;stroke-width:4px"/><ellipse cx="120.27" cy="104.36" rx="9.15" ry="12.96" style="fill:none;stroke:#000;stroke-linecap:round;stroke-linejoin:round;stroke-width:4px"/><ellipse cx="79.11" cy="104.36" rx="9.15" ry="12.96" style="fill:none;stroke:#000;stroke-linecap:round;stroke-linejoin:round;stroke-width:4px"/></svg>
