<!-- art: @gatomocho --><svg xmlns="http://www.w3.org/2000/svg" viewBox="0 0 200 200"><path d="M103.07 25.05c-45.9 0-83.1 37.23-83.1 83.17s37.21 83.17 83.1 83.17 83.1-37.23 83.1-83.17-37.21-83.17-83.1-83.17Zm33.54 127.14-29.18-18.46-23.23 19.95-9.83-33.95-29.48-13.7 110.22-45.88-18.51 92.04Z" style="fill:#7daf47;opacity:.75;stroke-width:0"/><path d="M114.57 93.31c-9.59 8.95-19.17 17.91-28.76 26.86 15.08 11.31 46.8 31.68 46.8 31.68s8.96-49.08 19.07-93.39c-20.72 6.48-59.61 21.97-59.61 21.97-18.07 7.53-36.13 15.06-54.2 22.59 8.63 5.56 30.92 12.91 32.51 14.78 1.19 1.4 6.43 22.37 9.64 35.06 7.2-7.17 14.4-14.35 21.6-21.52" style="fill:none;stroke:#000;stroke-linecap:round;stroke-linejoin:round;stroke-width:4px"/><path d="M120.26 88.22c.6-.57 1.2-1 2-1.75M183.11 103.69c0 45.9-37.21 83.11-83.11 83.11M100 20.58c45.9 0 83.11 37.21 83.11 83.11M100 186.79c-45.9 0-83.11-37.21-83.11-83.11M32.89 54.66C22.83 68.4 16.9 85.35 16.9 103.68M51.48 36.74a52.729 52.729 0 0 0-10.49 9.4M100 20.58c-13.78 0-26.78 3.35-38.22 9.29" style="fill:none;stroke:#000;stroke-linecap:round;stroke-linejoin:round;stroke-width:4px"/></svg>
